<svg xmlns="http://www.w3.org/2000/svg" width="120" height="40" viewBox="0 0 120 40" fill="none">
	<g clip-path="url(#clip0_525_334)">
		<path
			d="M110.444 0.00013H9.56194C9.19421 0.00013 8.83089 0.00013 8.46413 0.00213C8.15712 0.00413 7.85256 0.00994 7.5426 0.01483C6.86923 0.0227318 6.19744 0.0818063 5.53308 0.19154C4.86964 0.303663 4.22699 0.515046 3.62686 0.81854C3.02746 1.1246 2.47977 1.5223 2.00367 1.9972C1.52506 2.47077 1.1261 3.01815 0.822138 3.61829C0.517335 4.21724 0.305984 4.85907 0.195384 5.52161C0.0837323 6.18332 0.0236515 6.85265 0.0156808 7.52361C0.00637476 7.83021 0.00539201 8.13783 0.000488281 8.44447V31.5587C0.00539201 31.8692 0.00637476 32.17 0.0156808 32.4806C0.023654 33.1516 0.0837347 33.8209 0.195384 34.4825C0.305679 35.1455 0.517043 35.7877 0.822138 36.3868C1.12596 36.985 1.52498 37.5302 2.00367 38.0011C2.47797 38.4781 3.02601 38.8761 3.62686 39.1798C4.22699 39.4841 4.86957 39.6968 5.53308 39.8106C6.19756 39.9195 6.86927 39.9786 7.5426 39.9874C7.85256 39.9942 8.15712 39.9981 8.46413 39.9981C8.83088 40.0001 9.19423 40.0001 9.56194 40.0001H110.444C110.805 40.0001 111.171 40.0001 111.531 39.9981C111.837 39.9981 112.15 39.9942 112.456 39.9874C113.128 39.9791 113.798 39.92 114.462 39.8106C115.127 39.696 115.772 39.4834 116.375 39.1798C116.975 38.8759 117.523 38.478 117.997 38.0011C118.474 37.5284 118.874 36.9836 119.182 36.3868C119.485 35.7872 119.694 35.1451 119.803 34.4825C119.914 33.8208 119.977 33.1516 119.989 32.4806C119.993 32.17 119.993 31.8692 119.993 31.5587C120 31.1954 120 30.8341 120 30.4649V9.53626C120 9.17005 120 8.80677 119.993 8.44447C119.993 8.13783 119.993 7.83021 119.989 7.52357C119.977 6.85255 119.914 6.18337 119.803 5.52157C119.694 4.85941 119.484 4.21763 119.182 3.61825C118.563 2.41533 117.581 1.43616 116.375 0.81845C115.772 0.515697 115.127 0.30437 114.462 0.19145C113.799 0.0812328 113.128 0.0221378 112.456 0.01469C112.15 0.00981 111.837 0.00395 111.531 0.002C111.171 0 110.805 0.00013 110.444 0.00013Z"
			fill="#9D978D" />
		<path
			d="M8.46905 39.125C8.16352 39.125 7.86536 39.1211 7.56222 39.1143C6.93425 39.1061 6.30774 39.0516 5.68784 38.9512C5.10981 38.8519 4.54986 38.6673 4.02645 38.4033C3.50784 38.1415 3.03482 37.7983 2.62552 37.3867C2.2103 36.98 1.86461 36.5082 1.60215 35.9902C1.3368 35.4688 1.15316 34.9099 1.05763 34.333C0.954461 33.7131 0.898644 33.0863 0.890658 32.458C0.8843 32.2471 0.875977 31.5449 0.875977 31.5449V8.44434C0.875977 8.44434 0.884841 7.75293 0.890708 7.5498C0.898355 6.92248 0.953847 6.29665 1.0567 5.67773C1.15241 5.09925 1.33619 4.53875 1.60169 4.01563C1.86319 3.49794 2.20696 3.02586 2.61968 2.61768C3.03193 2.20562 3.50646 1.8606 4.02595 1.59521C4.54816 1.33209 5.10706 1.14873 5.68392 1.05127C6.30585 0.949836 6.93454 0.894996 7.56469 0.88721L8.46954 0.875H111.527L112.442 0.8877C113.067 0.895099 113.69 0.94945 114.306 1.05029C114.889 1.14898 115.453 1.33362 115.981 1.59814C117.022 2.13299 117.869 2.97916 118.403 4.01807C118.665 4.53758 118.845 5.09351 118.94 5.66699C119.044 6.29099 119.102 6.92174 119.114 7.5542C119.117 7.8374 119.117 8.1416 119.117 8.44434C119.125 8.81934 119.125 9.17627 119.125 9.53613V30.4648C119.125 30.8281 119.125 31.1826 119.117 31.54C119.117 31.8652 119.117 32.1631 119.113 32.4697C119.102 33.0909 119.044 33.7104 118.942 34.3232C118.848 34.9043 118.666 35.4675 118.4 35.9932C118.136 36.5056 117.792 36.9733 117.382 37.3789C116.972 37.7927 116.498 38.1379 115.979 38.4014C115.452 38.6674 114.888 38.8527 114.306 38.9512C113.686 39.0522 113.059 39.1067 112.431 39.1143C112.138 39.1211 111.83 39.125 111.532 39.125L110.444 39.127L8.46905 39.125Z"
			fill="#110B08" />
		<path
			d="M24.8389 20.3006C24.8496 19.4659 25.072 18.6475 25.4851 17.9216C25.8983 17.1956 26.4889 16.5857 27.202 16.1485C26.749 15.5034 26.1514 14.9724 25.4566 14.5979C24.7619 14.2233 23.9891 14.0155 23.1997 13.9908C21.5157 13.8146 19.8832 14.9957 19.0251 14.9957C18.1504 14.9957 16.8292 14.0083 15.4064 14.0375C14.4862 14.0672 13.5893 14.334 12.8033 14.8121C12.0172 15.2901 11.3687 15.9631 10.921 16.7654C8.98154 20.1138 10.4282 25.0349 12.286 27.7415C13.2155 29.0668 14.3018 30.5473 15.7232 30.4948C17.1142 30.4372 17.6337 29.6103 19.3127 29.6103C20.9761 29.6103 21.4635 30.4948 22.9138 30.4614C24.4063 30.4372 25.3467 29.1302 26.2436 27.7923C26.9115 26.8479 27.4254 25.8042 27.7663 24.6997C26.8992 24.334 26.1592 23.7218 25.6386 22.9395C25.118 22.1572 24.8399 21.2394 24.8389 20.3006Z"
			fill="#FAF4E6" />
		<path
			d="M22.0995 12.2108C22.9133 11.2366 23.3143 9.98445 23.2172 8.72021C21.9739 8.85044 20.8254 9.44299 20.0006 10.3798C19.5973 10.8375 19.2885 11.3699 19.0917 11.9467C18.8949 12.5235 18.814 13.1333 18.8537 13.7412C19.4756 13.7476 20.0908 13.6132 20.653 13.3481C21.2153 13.083 21.7099 12.6942 22.0995 12.2108Z"
			fill="#FAF4E6" />
		<path
			d="M42.4215 27.1397H37.6748L36.5349 30.4961H34.5244L39.0204 18.0781H41.1093L45.6052 30.4961H43.5604L42.4215 27.1397ZM38.1664 25.5908H41.929L40.0742 20.1436H40.0223L38.1664 25.5908Z"
			fill="#FAF4E6" />
		<path
			d="M55.315 25.9697C55.315 28.7832 53.8049 30.5908 51.5261 30.5908C50.9488 30.6209 50.3747 30.4883 49.8695 30.2082C49.3643 29.928 48.9484 29.5117 48.6694 29.0068H48.6263V33.4912H46.7627V21.4423H48.5666V22.9482H48.6009C48.8927 22.4457 49.3156 22.0316 49.8246 21.7497C50.3337 21.4679 50.9098 21.3289 51.4918 21.3476C53.796 21.3476 55.315 23.164 55.315 25.9697ZM53.3995 25.9697C53.3995 24.1367 52.4495 22.9316 51.0002 22.9316C49.5763 22.9316 48.6185 24.1621 48.6185 25.9697C48.6185 27.7939 49.5763 29.0156 51.0002 29.0156C52.4495 29.0156 53.3995 27.8193 53.3995 25.9697Z"
			fill="#FAF4E6" />
		<path
			d="M65.3079 25.9697C65.3079 28.7832 63.7978 30.5908 61.519 30.5908C60.9417 30.6209 60.3676 30.4883 59.8624 30.2081C59.3572 29.928 58.9413 29.5117 58.6624 29.0068H58.6192V33.4912H56.7556V21.4423H58.5595V22.9482H58.5938C58.8855 22.4457 59.3084 22.0315 59.8175 21.7497C60.3266 21.4679 60.9027 21.3289 61.4847 21.3476C63.789 21.3476 65.3079 23.164 65.3079 25.9697ZM63.3924 25.9697C63.3924 24.1367 62.4425 22.9316 60.9931 22.9316C59.5692 22.9316 58.6114 24.1621 58.6114 25.9697C58.6114 27.7939 59.5692 29.0156 60.9931 29.0156C62.4425 29.0156 63.3924 27.8193 63.3924 25.9697Z"
			fill="#FAF4E6" />
		<path
			d="M71.9122 27.0362C72.0503 28.2676 73.25 29.0762 74.8893 29.0762C76.4601 29.0762 77.5902 28.2676 77.5902 27.1572C77.5902 26.1934 76.9086 25.6162 75.2947 25.2207L73.6809 24.833C71.3942 24.2822 70.3326 23.2158 70.3326 21.4854C70.3326 19.3428 72.2051 17.8711 74.8639 17.8711C77.4952 17.8711 79.2991 19.3428 79.3598 21.4854H77.4786C77.366 20.2461 76.3387 19.4981 74.8374 19.4981C73.3361 19.4981 72.3088 20.2549 72.3088 21.3565C72.3088 22.2344 72.965 22.751 74.57 23.1465L75.942 23.4824C78.497 24.0849 79.5586 25.1084 79.5586 26.9248C79.5586 29.248 77.7028 30.7031 74.7512 30.7031C71.9896 30.7031 70.125 29.2822 70.0045 27.0361L71.9122 27.0362Z"
			fill="#FAF4E6" />
		<path
			d="M83.5807 19.2998V21.4424H85.3072V22.9141H83.5807V27.9053C83.5807 28.6807 83.9264 29.042 84.6854 29.042C84.8903 29.0384 85.095 29.0241 85.2984 28.999V30.4619C84.9572 30.5255 84.6104 30.5543 84.2633 30.5478C82.4251 30.5478 81.7083 29.8593 81.7083 28.1035V22.9141H80.3882V21.4424H81.7083V19.2998H83.5807Z"
			fill="#FAF4E6" />
		<path
			d="M86.3071 25.9697C86.3071 23.1211 87.9896 21.3311 90.6131 21.3311C93.2455 21.3311 94.9201 23.1211 94.9201 25.9697C94.9201 28.8262 93.2543 30.6084 90.6131 30.6084C87.9729 30.6084 86.3071 28.8262 86.3071 25.9697ZM93.0212 25.9697C93.0212 24.0156 92.1232 22.8623 90.6131 22.8623C89.103 22.8623 88.206 24.0244 88.206 25.9697C88.206 27.9316 89.103 29.0762 90.6131 29.0762C92.1232 29.0762 93.0212 27.9316 93.0212 25.9697Z"
			fill="#FAF4E6" />
		<path
			d="M96.4566 21.4425H98.234V22.9835H98.2771C98.3974 22.5022 98.6801 22.0769 99.0778 21.779C99.4755 21.4811 99.9639 21.3288 100.461 21.3478C100.676 21.347 100.89 21.3703 101.099 21.4171V23.1554C100.828 23.0728 100.546 23.0348 100.262 23.0431C99.9914 23.0321 99.7215 23.0797 99.4709 23.1826C99.2204 23.2855 98.9951 23.4412 98.8106 23.6391C98.6262 23.837 98.4868 24.0724 98.4021 24.3291C98.3175 24.5857 98.2895 24.8576 98.3202 25.1261V30.4962H96.4565L96.4566 21.4425Z"
			fill="#FAF4E6" />
		<path
			d="M109.692 27.8369C109.441 29.4805 107.836 30.6084 105.782 30.6084C103.141 30.6084 101.502 28.8437 101.502 26.0127C101.502 23.1729 103.15 21.3311 105.704 21.3311C108.216 21.3311 109.796 23.0518 109.796 25.7969V26.4336H103.383V26.5459C103.354 26.8791 103.395 27.2148 103.506 27.5306C103.616 27.8464 103.793 28.1352 104.024 28.3778C104.255 28.6203 104.535 28.8111 104.846 28.9374C105.156 29.0637 105.49 29.1226 105.826 29.1103C106.266 29.1515 106.708 29.0498 107.086 28.8203C107.463 28.5909 107.757 28.246 107.922 27.8369L109.692 27.8369ZM103.392 25.1348H107.931C107.948 24.8352 107.902 24.5354 107.797 24.2541C107.692 23.9729 107.53 23.7164 107.321 23.5006C107.112 23.2849 106.86 23.1145 106.582 23.0003C106.304 22.8861 106.005 22.8305 105.704 22.8369C105.401 22.8351 105.1 22.8933 104.819 23.008C104.538 23.1227 104.283 23.2918 104.068 23.5054C103.853 23.7191 103.683 23.973 103.567 24.2527C103.451 24.5323 103.391 24.8321 103.392 25.1348Z"
			fill="#FAF4E6" />
		<path
			d="M36.8419 11.2534H37.642C37.7797 11.2705 37.9195 11.259 38.0526 11.2195C38.1856 11.1801 38.309 11.1136 38.415 11.0242C38.521 10.9349 38.6073 10.8246 38.6684 10.7003C38.7295 10.576 38.7642 10.4405 38.7702 10.3022C38.7702 9.75193 38.3549 9.39646 37.6508 9.39646C37.5097 9.3768 37.3661 9.38553 37.2284 9.42214C37.0907 9.45875 36.9618 9.52249 36.8493 9.60961C36.7367 9.69672 36.6428 9.80544 36.5731 9.92935C36.5034 10.0533 36.4592 10.1898 36.4433 10.331H35.5649C35.58 10.0747 35.6479 9.82428 35.7642 9.59527C35.8806 9.36626 36.0431 9.16359 36.2414 8.99989C36.4397 8.83618 36.6697 8.71494 36.9171 8.64372C37.1645 8.5725 37.4239 8.55282 37.6792 8.58591C38.8573 8.58591 39.6868 9.24362 39.6868 10.1904C39.6896 10.5076 39.5832 10.8161 39.3853 11.0645C39.1875 11.3129 38.9102 11.486 38.5998 11.5551V11.6255C38.9678 11.6417 39.3144 11.8027 39.5638 12.073C39.8132 12.3434 39.9451 12.7013 39.9306 13.0683C39.9034 13.3322 39.8236 13.588 39.696 13.8208C39.5683 14.0535 39.3953 14.2585 39.1872 14.4237C38.979 14.5889 38.7399 14.7111 38.4838 14.7829C38.2278 14.8548 37.9599 14.875 37.6959 14.8423C37.4313 14.8782 37.1622 14.8607 36.9046 14.7907C36.647 14.7208 36.4061 14.5998 36.1964 14.4351C35.9866 14.2703 35.8123 14.0651 35.6838 13.8317C35.5553 13.5983 35.4752 13.3415 35.4484 13.0766H36.3405C36.3944 13.6474 36.9203 14.0156 37.6959 14.0156C38.4715 14.0156 38.9778 13.6021 38.9778 13.0191C38.9778 12.4277 38.5008 12.0635 37.6675 12.0635H36.8419V11.2534Z"
			fill="#FAF4E6" />
		<path
			d="M40.9442 13.4243C40.9442 12.6138 41.5504 12.1465 42.6237 12.0801L43.8469 12.0098V11.6211C43.8469 11.1455 43.5325 10.877 42.9224 10.877C42.4249 10.877 42.0812 11.0591 41.9813 11.3774H41.1185C41.2096 10.604 41.9402 10.1079 42.9645 10.1079C44.0966 10.1079 44.7351 10.6699 44.7351 11.6211V14.6978H43.8763V14.0649H43.8057C43.6626 14.2919 43.4617 14.477 43.2234 14.6012C42.9851 14.7254 42.718 14.7843 42.4494 14.7719C42.2598 14.7916 42.0683 14.7714 41.887 14.7127C41.7057 14.654 41.5388 14.5581 41.397 14.4311C41.2552 14.3042 41.1416 14.149 41.0636 13.9756C40.9856 13.8021 40.945 13.6144 40.9442 13.4243ZM43.8469 13.0395V12.6631L42.7441 12.7334C42.1223 12.7749 41.8402 12.9858 41.8402 13.3828C41.8402 13.7881 42.1928 14.0239 42.6776 14.0239C42.8196 14.0383 42.9631 14.024 43.0995 13.9819C43.2359 13.9398 43.3624 13.8708 43.4715 13.7789C43.5806 13.6871 43.67 13.5743 43.7345 13.4473C43.799 13.3202 43.8372 13.1816 43.8469 13.0395Z"
			fill="#FAF4E6" />
		<path d="M47.1001 10.9429V14.6978H46.209V10.1948H49.1822V10.9428L47.1001 10.9429Z"
			fill="#FAF4E6" />
		<path
			d="M54.583 12.4443C54.583 13.875 53.8573 14.7719 52.7174 14.7719C52.4376 14.791 52.1581 14.7299 51.9119 14.5959C51.6657 14.4619 51.4631 14.2606 51.3278 14.0156H51.2573V16.1948H50.3661V10.1948H51.224V10.939H51.2906C51.4283 10.6854 51.6336 10.4747 51.8838 10.3302C52.1341 10.1857 52.4195 10.113 52.7086 10.1201C53.8573 10.1201 54.583 11.0131 54.583 12.4443ZM53.6664 12.4443C53.6664 11.4931 53.2149 10.9184 52.4599 10.9184C51.7098 10.9184 51.2406 11.5053 51.2406 12.4482C51.2406 13.3867 51.7097 13.9741 52.4559 13.9741C53.2149 13.9741 53.6664 13.3994 53.6664 12.4443Z"
			fill="#FAF4E6" />
		<path
			d="M55.7699 16.3106V15.5454C55.8663 15.5576 55.9635 15.5632 56.0607 15.562C56.2506 15.576 56.4389 15.5197 56.5897 15.4037C56.7404 15.2877 56.8429 15.1203 56.8774 14.9336L56.944 14.7144L55.3096 10.1948H56.2801L57.4122 13.7715H57.4827L58.6108 10.1948H59.5559L57.8725 14.8838C57.4866 15.9795 57.0596 16.3311 56.1391 16.3311C56.0647 16.3311 55.8531 16.3228 55.7699 16.3106Z"
			fill="#FAF4E6" />
		<path
			d="M60.2502 13.4198H61.1375C61.2247 13.8168 61.5978 14.0238 62.1197 14.0238C62.7132 14.0238 63.0775 13.763 63.0775 13.3578C63.0775 12.9237 62.7504 12.7167 62.1197 12.7167H61.444V12.0262H62.108C62.6466 12.0262 62.9208 11.8197 62.9208 11.4432C62.9208 11.1127 62.6554 10.8602 62.108 10.8602C61.6095 10.8602 61.2452 11.0712 61.1874 11.4267H60.3286C60.3928 11.0182 60.6152 10.6512 60.948 10.4045C61.2807 10.1579 61.6973 10.0514 62.108 10.1078C63.1813 10.1078 63.7953 10.5917 63.7953 11.3524C63.8003 11.5643 63.7323 11.7714 63.6025 11.9392C63.4727 12.107 63.2891 12.2253 63.0824 12.2743V12.3446C63.3285 12.3763 63.5544 12.4969 63.7173 12.6837C63.8801 12.8705 63.9685 13.1103 63.9657 13.3578C63.9657 14.2138 63.2352 14.7802 62.1197 14.7802C61.1336 14.7801 60.3325 14.3295 60.2502 13.4198Z"
			fill="#FAF4E6" />
		<path
			d="M65.249 14.6978V10.1948H66.1324V13.292H66.2029L68.2839 10.1948H69.1672V14.6978H68.2839V11.584H68.2173L66.1324 14.6978L65.249 14.6978Z"
			fill="#FAF4E6" />
		<path d="M74.0335 10.9428H72.6115V14.6977H71.7193V10.9428H70.2974V10.1948H74.0335V10.9428Z"
			fill="#FAF4E6" />
		<path
			d="M78.8339 13.482C78.7125 13.8935 78.4499 14.2494 78.0921 14.4875C77.7343 14.7257 77.304 14.8309 76.8763 14.7847C76.5788 14.7926 76.2832 14.7358 76.0099 14.6182C75.7366 14.5007 75.4923 14.3253 75.2938 14.1041C75.0953 13.883 74.9475 13.6214 74.8606 13.3376C74.7736 13.0538 74.7497 12.7545 74.7904 12.4605C74.7508 12.1656 74.7751 11.8657 74.8619 11.581C74.9486 11.2964 75.0957 11.0336 75.2931 10.8105C75.4905 10.5874 75.7337 10.4093 76.0061 10.2881C76.2786 10.1669 76.574 10.1054 76.8724 10.108C78.1288 10.108 78.8878 10.964 78.8878 12.378V12.6881H75.6992V12.7379C75.6851 12.9032 75.7058 13.0696 75.76 13.2264C75.8142 13.3832 75.9007 13.527 76.014 13.6485C76.1272 13.77 76.2647 13.8665 76.4176 13.9318C76.5705 13.9972 76.7354 14.0299 76.9018 14.0279C77.1148 14.0533 77.3306 14.0149 77.5217 13.9177C77.7128 13.8205 77.8706 13.6689 77.9751 13.482L78.8339 13.482ZM75.6991 12.0308H77.979C77.9902 11.8798 77.9697 11.7281 77.9187 11.5854C77.8676 11.4427 77.7872 11.3123 77.6827 11.2024C77.5781 11.0926 77.4516 11.0058 77.3114 10.9475C77.1712 10.8893 77.0203 10.861 76.8684 10.8643C76.7143 10.8623 76.5612 10.891 76.4184 10.9489C76.2755 11.0068 76.1458 11.0926 76.0368 11.2014C75.9278 11.3101 75.8418 11.4396 75.7838 11.582C75.7258 11.7245 75.697 11.8771 75.6991 12.0308Z"
			fill="#FAF4E6" />
		<path
			d="M82.6121 10.1948H84.648C85.5314 10.1948 86.0494 10.6411 86.0494 11.3398C86.0508 11.5615 85.9758 11.777 85.8369 11.9501C85.698 12.1233 85.5037 12.2436 85.2865 12.291V12.3613C85.5503 12.3779 85.7975 12.4949 85.9772 12.6881C86.1569 12.8813 86.2553 13.1359 86.2521 13.3994C86.2521 14.185 85.6597 14.6977 84.6686 14.6977H82.6121V10.1948ZM83.4954 10.877V12.043H84.3787C84.9174 12.043 85.1749 11.8364 85.1749 11.4556C85.1749 11.1045 84.9507 10.8769 84.4776 10.8769L83.4954 10.877ZM83.4954 12.6963V14.0156H84.5521C85.079 14.0156 85.361 13.7837 85.361 13.3579C85.361 12.9072 85.0418 12.6963 84.4404 12.6963L83.4954 12.6963Z"
			fill="#FAF4E6" />
	</g>
	<defs>
		<clipPath id="clip0_525_334">
			<rect width="120" height="40" fill="white" transform="translate(0.000488281)" />
		</clipPath>
	</defs>
</svg>