<svg xmlns="http://www.w3.org/2000/svg" width="135" height="40" viewBox="0 0 135 40" fill="none">
	<path
		d="M130 39.9998H5.00002C2.25001 39.9998 0 37.7498 0 34.9998V4.99979C0 2.2498 2.25001 -0.000202179 5.00002 -0.000202179H130C132.751 -0.000202179 135.001 2.2498 135.001 4.99979V34.9998C135.001 37.7498 132.751 39.9998 130 39.9998Z"
		fill="#110B08" />
	<path
		d="M130 4.19617e-05H5.00002C2.25001 4.19617e-05 0 2.25004 0 5.00004V35C0 37.75 2.25001 40 5.00002 40H130C132.751 40 135.001 37.75 135.001 35V5.00004C135.001 2.25004 132.751 4.19617e-05 130 4.19617e-05ZM130 0.800041C132.316 0.800041 134.201 2.68404 134.201 5.00004V35C134.201 37.316 132.316 39.2 130 39.2H5.00002C2.68401 39.2 0.800006 37.316 0.800006 35V5.00004C0.800006 2.68404 2.68401 0.800041 5.00002 0.800041H130Z"
		fill="#9D978D" />
	<path
		d="M106.936 29.9999H108.802V17.4989H106.936V29.9999ZM123.743 22.0019L121.604 27.4219H121.54L119.32 22.0019H117.31L120.639 29.5769L118.742 33.7909H120.687L125.818 22.0019H123.743ZM113.161 28.5799C112.549 28.5799 111.697 28.2749 111.697 27.5179C111.697 26.5539 112.758 26.1839 113.675 26.1839C114.495 26.1839 114.882 26.3609 115.38 26.6019C115.235 27.7599 114.238 28.5799 113.161 28.5799ZM113.386 21.7289C112.035 21.7289 110.635 22.3239 110.057 23.6429L111.713 24.3339C112.067 23.6429 112.726 23.4169 113.418 23.4169C114.383 23.4169 115.364 23.9959 115.38 25.0259V25.1539C115.042 24.9609 114.319 24.6719 113.434 24.6719C111.649 24.6719 109.831 25.6529 109.831 27.4859C109.831 29.1589 111.295 30.2369 112.935 30.2369C114.19 30.2369 114.882 29.6739 115.316 29.0139H115.38V29.9789H117.181V25.1859C117.181 22.9669 115.525 21.7289 113.386 21.7289ZM101.854 23.5239H99.2001V19.2389H101.854C103.249 19.2389 104.041 20.3939 104.041 21.3809C104.041 22.3499 103.249 23.5239 101.854 23.5239ZM101.806 17.4989H97.3351V29.9999H99.2001V25.2639H101.806C103.874 25.2639 105.907 23.7659 105.907 21.3809C105.907 18.9959 103.874 17.4989 101.806 17.4989ZM77.4251 28.5819C76.1361 28.5819 75.0571 27.5029 75.0571 26.0209C75.0571 24.5229 76.1361 23.4269 77.4251 23.4269C78.6981 23.4269 79.6961 24.5229 79.6961 26.0209C79.6961 27.5029 78.6981 28.5819 77.4251 28.5819ZM79.5681 22.7019H79.5031C79.0841 22.2029 78.2791 21.7519 77.2641 21.7519C75.1371 21.7519 73.1881 23.6199 73.1881 26.0209C73.1881 28.4049 75.1371 30.2579 77.2641 30.2579C78.2791 30.2579 79.0841 29.8069 79.5031 29.2909H79.5681V29.9039C79.5681 31.5309 78.6981 32.4009 77.2961 32.4009C76.1521 32.4009 75.4431 31.5789 75.1531 30.8859L73.5261 31.5629C73.9931 32.6909 75.2341 34.0759 77.2961 34.0759C79.4871 34.0759 81.3401 32.7869 81.3401 29.6459V22.0089H79.5681V22.7019ZM82.6291 29.9999H84.4981V17.4979H82.6291V29.9999ZM87.2521 25.8759C87.2041 24.2329 88.5251 23.3949 89.4751 23.3949C90.2171 23.3949 90.8451 23.7649 91.0541 24.2969L87.2521 25.8759ZM93.0521 24.4579C92.6981 23.5079 91.6181 21.7519 89.4111 21.7519C87.2201 21.7519 85.4001 23.4749 85.4001 26.0049C85.4001 28.3889 87.2041 30.2579 89.6201 30.2579C91.5701 30.2579 92.6981 29.0659 93.1651 28.3729L91.7151 27.4059C91.2321 28.1149 90.5711 28.5819 89.6201 28.5819C88.6701 28.5819 87.9931 28.1469 87.5581 27.2939L93.2451 24.9409L93.0521 24.4579ZM47.744 23.0569V24.8609H52.061C51.932 25.8759 51.594 26.6169 51.079 27.1319C50.45 27.7609 49.467 28.4539 47.744 28.4539C45.0849 28.4539 43.0069 26.3109 43.0069 23.6529C43.0069 20.9939 45.0849 18.8519 47.744 18.8519C49.178 18.8519 50.225 19.4159 50.998 20.1409L52.271 18.8679C51.191 17.8369 49.758 17.0469 47.744 17.0469C44.1029 17.0469 41.0419 20.0119 41.0419 23.6529C41.0419 27.2939 44.1029 30.2579 47.744 30.2579C49.709 30.2579 51.191 29.6129 52.351 28.4049C53.544 27.2129 53.914 25.5379 53.914 24.1839C53.914 23.7649 53.882 23.3789 53.817 23.0569H47.744ZM58.823 28.5819C57.534 28.5819 56.422 27.5189 56.422 26.0049C56.422 24.4739 57.534 23.4269 58.823 23.4269C60.111 23.4269 61.223 24.4739 61.223 26.0049C61.223 27.5189 60.111 28.5819 58.823 28.5819ZM58.823 21.7519C56.47 21.7519 54.553 23.5399 54.553 26.0049C54.553 28.4539 56.47 30.2579 58.823 30.2579C61.175 30.2579 63.092 28.4539 63.092 26.0049C63.092 23.5399 61.175 21.7519 58.823 21.7519ZM68.136 28.5819C66.847 28.5819 65.735 27.5189 65.735 26.0049C65.735 24.4739 66.847 23.4269 68.136 23.4269C69.425 23.4269 70.536 24.4739 70.536 26.0049C70.536 27.5189 69.425 28.5819 68.136 28.5819ZM68.136 21.7519C65.784 21.7519 63.867 23.5399 63.867 26.0049C63.867 28.4539 65.784 30.2579 68.136 30.2579C70.488 30.2579 72.4051 28.4539 72.4051 26.0049C72.4051 23.5399 70.488 21.7519 68.136 21.7519Z"
		fill="#FAF4E6" />
	<path
		d="M20.7176 19.4239L10.0706 30.7238C10.0716 30.7258 10.0716 30.7288 10.0726 30.7308C10.3996 31.9578 11.5196 32.8608 12.8496 32.8608C13.3816 32.8608 13.8806 32.7168 14.3086 32.4648L14.3426 32.4448L26.3266 25.5298L20.7176 19.4239Z"
		fill="#EA4335" />
	<path
		d="M31.488 17.4998L31.478 17.4928L26.304 14.4938L20.475 19.6808L26.325 25.5288L31.471 22.5598C32.373 22.0718 32.986 21.1208 32.986 20.0248C32.986 18.9348 32.382 17.9888 31.488 17.4998Z"
		fill="#FBBC04" />
	<path
		d="M10.07 9.27714C10.006 9.51314 9.97205 9.76114 9.97205 10.0171V29.9851C9.97205 30.2411 10.006 30.4891 10.071 30.7241L21.0831 19.7131L10.07 9.27714Z"
		fill="#4285F4" />
	<path
		d="M20.7954 20.0007L26.3055 14.4917L14.3354 7.55175C13.9004 7.29075 13.3924 7.14075 12.8494 7.14075C11.5194 7.14075 10.3974 8.04575 10.0704 9.27374L10.0694 9.27674L20.7954 20.0007Z"
		fill="#34A853" />
	<path
		d="M43.4963 9.96669C43.5083 10.9157 43.3173 11.6817 42.9273 12.2627H45.9603V7.73769H43.4963V9.96669ZM42.1133 14.2737H41.3763V12.2627H41.9633C42.4823 11.8157 42.7363 11.0497 42.7263 9.96669V6.99969H46.7313V12.2627H47.4013V14.2737H46.6643V12.9997H42.1133V14.2737Z"
		fill="#FAF4E6" />
	<path
		d="M43.4963 9.96669C43.5083 10.9157 43.3173 11.6817 42.9273 12.2627H45.9603V7.73769H43.4963V9.96669ZM42.1133 14.2737H41.3763V12.2627H41.9633C42.4823 11.8157 42.7363 11.0497 42.7263 9.96669V6.99969H46.7313V12.2627H47.4013V14.2737H46.6643V12.9997H42.1133V14.2737Z"
		stroke="#FAF4E6" stroke-width="0.266667" stroke-miterlimit="10" />
	<path
		d="M49.5845 11.722C50.0285 12.172 50.5715 12.396 51.2145 12.396C51.8565 12.396 52.4005 12.172 52.8445 11.722C53.2885 11.272 53.5115 10.698 53.5115 10C53.5115 9.30204 53.2885 8.72704 52.8445 8.27804C52.4005 7.82804 51.8565 7.60304 51.2145 7.60304C50.5715 7.60304 50.0285 7.82804 49.5845 8.27804C49.1415 8.72704 48.9185 9.30204 48.9185 10C48.9185 10.698 49.1415 11.272 49.5845 11.722ZM53.4145 12.224C52.8245 12.831 52.0915 13.134 51.2145 13.134C50.3375 13.134 49.6045 12.831 49.0155 12.224C48.4255 11.618 48.1315 10.877 48.1315 10C48.1315 9.12304 48.4255 8.38104 49.0155 7.77504C49.6045 7.16904 50.3375 6.86504 51.2145 6.86504C52.0865 6.86504 52.8175 7.17004 53.4105 7.77904C54.0025 8.38804 54.2985 9.12804 54.2985 10C54.2985 10.877 54.0035 11.618 53.4145 12.224Z"
		fill="#FAF4E6" />
	<path
		d="M49.5845 11.722C50.0285 12.172 50.5715 12.396 51.2145 12.396C51.8565 12.396 52.4005 12.172 52.8445 11.722C53.2885 11.272 53.5115 10.698 53.5115 10C53.5115 9.30204 53.2885 8.72704 52.8445 8.27804C52.4005 7.82804 51.8565 7.60304 51.2145 7.60304C50.5715 7.60304 50.0285 7.82804 49.5845 8.27804C49.1415 8.72704 48.9185 9.30204 48.9185 10C48.9185 10.698 49.1415 11.272 49.5845 11.722ZM53.4145 12.224C52.8245 12.831 52.0915 13.134 51.2145 13.134C50.3375 13.134 49.6045 12.831 49.0155 12.224C48.4255 11.618 48.1315 10.877 48.1315 10C48.1315 9.12304 48.4255 8.38104 49.0155 7.77504C49.6045 7.16904 50.3375 6.86504 51.2145 6.86504C52.0865 6.86504 52.8175 7.17004 53.4105 7.77904C54.0025 8.38804 54.2985 9.12804 54.2985 10C54.2985 10.877 54.0035 11.618 53.4145 12.224Z"
		stroke="#FAF4E6" stroke-width="0.266667" stroke-miterlimit="10" />
	<path
		d="M58.1796 13.1338C57.2966 13.1338 56.5566 12.8348 55.9586 12.2378C55.3606 11.6398 55.0626 10.8938 55.0626 9.99979C55.0626 9.10679 55.3606 8.36079 55.9586 7.76279C56.5566 7.1648 57.2966 6.8658 58.1796 6.8658C59.0836 6.8658 59.8196 7.19279 60.3836 7.84579L59.8466 8.36579C59.4396 7.85779 58.8826 7.60379 58.1796 7.60379C57.5256 7.60379 56.9736 7.82379 56.5246 8.26579C56.0746 8.70679 55.8496 9.28479 55.8496 9.99979C55.8496 10.7148 56.0746 11.2938 56.5246 11.7348C56.9736 12.1758 57.5256 12.3968 58.1796 12.3968C58.9006 12.3968 59.5146 12.1068 60.0236 11.5258L60.5596 12.0618C60.2846 12.3908 59.9426 12.6518 59.5286 12.8448C59.1156 13.0378 58.6646 13.1338 58.1796 13.1338Z"
		fill="#FAF4E6" />
	<path
		d="M58.1796 13.1338C57.2966 13.1338 56.5566 12.8348 55.9586 12.2378C55.3606 11.6398 55.0626 10.8938 55.0626 9.99979C55.0626 9.10679 55.3606 8.36079 55.9586 7.76279C56.5566 7.1648 57.2966 6.8658 58.1796 6.8658C59.0836 6.8658 59.8196 7.19279 60.3836 7.84579L59.8466 8.36579C59.4396 7.85779 58.8826 7.60379 58.1796 7.60379C57.5256 7.60379 56.9736 7.82379 56.5246 8.26579C56.0746 8.70679 55.8496 9.28479 55.8496 9.99979C55.8496 10.7148 56.0746 11.2938 56.5246 11.7348C56.9736 12.1758 57.5256 12.3968 58.1796 12.3968C58.9006 12.3968 59.5146 12.1068 60.0236 11.5258L60.5596 12.0618C60.2846 12.3908 59.9426 12.6518 59.5286 12.8448C59.1156 13.0378 58.6646 13.1338 58.1796 13.1338Z"
		stroke="#FAF4E6" stroke-width="0.266667" stroke-miterlimit="10" />
	<path d="M63.6774 13H62.9064V7.73701H61.2303V7.00001H65.3534V7.73701H63.6774V13Z" fill="#FAF4E6" />
	<path d="M63.6774 13H62.9064V7.73701H61.2303V7.00001H65.3534V7.73701H63.6774V13Z" stroke="#FAF4E6"
		stroke-width="0.266667" stroke-miterlimit="10" />
	<path
		d="M70.6467 7.00004L68.3767 12.061C68.0627 12.776 67.5977 13.134 66.9777 13.134C66.7927 13.134 66.5947 13.089 66.3817 13L66.5827 12.288C66.7117 12.36 66.8457 12.396 66.9847 12.396C67.1637 12.396 67.3027 12.362 67.3997 12.292C67.4977 12.222 67.5887 12.095 67.6727 11.911L67.8907 11.433L65.8707 7.00004H66.7757L68.2587 10.444H68.2927L69.7417 7.00004H70.6467Z"
		fill="#FAF4E6" />
	<path
		d="M70.6467 7.00004L68.3767 12.061C68.0627 12.776 67.5977 13.134 66.9777 13.134C66.7927 13.134 66.5947 13.089 66.3817 13L66.5827 12.288C66.7117 12.36 66.8457 12.396 66.9847 12.396C67.1637 12.396 67.3027 12.362 67.3997 12.292C67.4977 12.222 67.5887 12.095 67.6727 11.911L67.8907 11.433L65.8707 7.00004H66.7757L68.2587 10.444H68.2927L69.7417 7.00004H70.6467Z"
		stroke="#FAF4E6" stroke-width="0.266667" stroke-miterlimit="10" />
	<path d="M71.5194 13V7.00001H75.8604V13H75.0884V7.73701H72.2904V13H71.5194Z" fill="#FAF4E6" />
	<path d="M71.5194 13V7.00001H75.8604V13H75.0884V7.73701H72.2904V13H71.5194Z" stroke="#FAF4E6"
		stroke-width="0.266667" stroke-miterlimit="10" />
	<path
		d="M77.2347 13V7.00001H78.0047V9.572H81.0048V7.00001H81.7768V13H81.0048V10.293H78.0047V13H77.2347Z"
		fill="#FAF4E6" />
	<path
		d="M77.2347 13V7.00001H78.0047V9.572H81.0048V7.00001H81.7768V13H81.0048V10.293H78.0047V13H77.2347Z"
		stroke="#FAF4E6" stroke-width="0.266667" stroke-miterlimit="10" />
	<path
		d="M84.2274 11.722C84.6714 12.172 85.2144 12.396 85.8574 12.396C86.4994 12.396 87.0434 12.172 87.4874 11.722C87.9314 11.272 88.1544 10.698 88.1544 10C88.1544 9.30204 87.9314 8.72704 87.4874 8.27804C87.0434 7.82804 86.4994 7.60304 85.8574 7.60304C85.2144 7.60304 84.6714 7.82804 84.2274 8.27804C83.7844 8.72704 83.5614 9.30204 83.5614 10C83.5614 10.698 83.7844 11.272 84.2274 11.722ZM88.0574 12.224C87.4674 12.831 86.7344 13.134 85.8574 13.134C84.9804 13.134 84.2474 12.831 83.6584 12.224C83.0684 11.618 82.7744 10.877 82.7744 10C82.7744 9.12304 83.0684 8.38104 83.6584 7.77504C84.2474 7.16904 84.9804 6.86504 85.8574 6.86504C86.7294 6.86504 87.4604 7.17004 88.0534 7.77904C88.6454 8.38804 88.9414 9.12804 88.9414 10C88.9414 10.877 88.6464 11.618 88.0574 12.224Z"
		fill="#FAF4E6" />
	<path
		d="M84.2274 11.722C84.6714 12.172 85.2144 12.396 85.8574 12.396C86.4994 12.396 87.0434 12.172 87.4874 11.722C87.9314 11.272 88.1544 10.698 88.1544 10C88.1544 9.30204 87.9314 8.72704 87.4874 8.27804C87.0434 7.82804 86.4994 7.60304 85.8574 7.60304C85.2144 7.60304 84.6714 7.82804 84.2274 8.27804C83.7844 8.72704 83.5614 9.30204 83.5614 10C83.5614 10.698 83.7844 11.272 84.2274 11.722ZM88.0574 12.224C87.4674 12.831 86.7344 13.134 85.8574 13.134C84.9804 13.134 84.2474 12.831 83.6584 12.224C83.0684 11.618 82.7744 10.877 82.7744 10C82.7744 9.12304 83.0684 8.38104 83.6584 7.77504C84.2474 7.16904 84.9804 6.86504 85.8574 6.86504C86.7294 6.86504 87.4604 7.17004 88.0534 7.77904C88.6454 8.38804 88.9414 9.12804 88.9414 10C88.9414 10.877 88.6464 11.618 88.0574 12.224Z"
		stroke="#FAF4E6" stroke-width="0.266667" stroke-miterlimit="10" />
	<path
		d="M92.8646 12.2628H94.4156C94.7116 12.2628 94.9516 12.1588 95.1356 11.9518C95.3206 11.7458 95.4126 11.5198 95.4126 11.2738C95.4126 11.0278 95.3176 10.8028 95.1276 10.5988C94.9376 10.3958 94.6886 10.2928 94.3816 10.2928H92.8646V12.2628ZM92.8646 9.57276H94.2636C94.5546 9.57276 94.7886 9.47676 94.9646 9.28376C95.1396 9.09076 95.2276 8.87976 95.2276 8.65076C95.2276 8.42176 95.1426 8.21176 94.9716 8.02276C94.8016 7.83276 94.5776 7.73776 94.2986 7.73776H92.8646V9.57276ZM92.0936 12.9998V6.99976H94.2636C94.7336 6.99976 95.1396 7.15576 95.4836 7.46476C95.8276 7.77576 95.9996 8.16476 95.9996 8.63376C95.9996 8.91876 95.9256 9.17076 95.7766 9.38876C95.6296 9.60676 95.4316 9.77076 95.1856 9.88276V9.91576C95.4816 10.0168 95.7246 10.1898 95.9156 10.4358C96.1046 10.6818 96.2006 10.9668 96.2006 11.2908C96.2006 11.7828 96.0196 12.1898 95.6596 12.5138C95.2986 12.8378 94.8736 12.9998 94.3816 12.9998H92.0936Z"
		fill="#FAF4E6" />
	<path
		d="M92.8646 12.2628H94.4156C94.7116 12.2628 94.9516 12.1588 95.1356 11.9518C95.3206 11.7458 95.4126 11.5198 95.4126 11.2738C95.4126 11.0278 95.3176 10.8028 95.1276 10.5988C94.9376 10.3958 94.6886 10.2928 94.3816 10.2928H92.8646V12.2628ZM92.8646 9.57276H94.2636C94.5546 9.57276 94.7886 9.47676 94.9646 9.28376C95.1396 9.09076 95.2276 8.87976 95.2276 8.65076C95.2276 8.42176 95.1426 8.21176 94.9716 8.02276C94.8016 7.83276 94.5776 7.73776 94.2986 7.73776H92.8646V9.57276ZM92.0936 12.9998V6.99976H94.2636C94.7336 6.99976 95.1396 7.15576 95.4836 7.46476C95.8276 7.77576 95.9996 8.16476 95.9996 8.63376C95.9996 8.91876 95.9256 9.17076 95.7766 9.38876C95.6296 9.60676 95.4316 9.77076 95.1856 9.88276V9.91576C95.4816 10.0168 95.7246 10.1898 95.9156 10.4358C96.1046 10.6818 96.2006 10.9668 96.2006 11.2908C96.2006 11.7828 96.0196 12.1898 95.6596 12.5138C95.2986 12.8378 94.8736 12.9998 94.3816 12.9998H92.0936Z"
		stroke="#FAF4E6" stroke-width="0.266667" stroke-miterlimit="10" />
</svg>