<svg xmlns="http://www.w3.org/2000/svg" width="42" height="42" viewBox="0 0 42 42" fill="none">
	<path d="M21 0C32.59 0 41.9998 9.40992 41.9998 21C30.4098 21 21 11.5901 21 0Z" fill="white" />
	<path d="M42 21C42 32.5901 32.5901 42 21.0001 42C21.0001 30.4099 30.4099 21 42 21Z" fill="white" />
	<path
		d="M20.9998 10.5C20.9998 4.70102 16.2989 0 10.4999 0C4.70097 0 0 4.70102 0 10.5C0 16.299 4.70097 21 10.4999 21C16.2989 21 20.9998 16.299 20.9998 10.5Z"
		fill="#FF0000" />
	<path d="M0 21C11.59 21 20.9998 30.4099 20.9998 42H0V21Z" fill="white" />
</svg>