<svg xmlns="http://www.w3.org/2000/svg" width="32" height="33" viewBox="0 0 32 33" fill="none">
	<path
		d="M9.93711 4.11689C10.4368 2.84993 12.2299 2.84994 12.7295 4.1169L14.278 8.0431C14.4305 8.42991 14.7368 8.7361 15.1236 8.88865L19.0497 10.4371C20.3168 10.9368 20.3168 12.7299 19.0497 13.2296L15.1236 14.778C14.7368 14.9305 14.4305 15.2368 14.278 15.6236L12.7295 19.5497C12.2299 20.8168 10.4368 20.8168 9.93711 19.5497L8.38863 15.6236C8.23608 15.2368 7.9299 14.9305 7.54308 14.778L3.61687 13.2296C2.34991 12.7299 2.34992 10.9368 3.61688 10.4371L7.54308 8.88865C7.9299 8.7361 8.23608 8.42991 8.38863 8.0431L9.93711 4.11689Z"
		fill="#FAF4E6" />
	<path opacity="0.5"
		d="M22.566 18.3555C22.8407 17.6593 23.826 17.6593 24.1007 18.3555L25.3015 21.4004C25.3853 21.6131 25.5536 21.7813 25.7663 21.8652L28.8112 23.066C29.5073 23.3407 29.5073 24.326 28.8112 24.6007L25.7663 25.8015C25.5536 25.8853 25.3853 26.0536 25.3015 26.2663L24.1007 29.3112C23.826 30.0073 22.8407 30.0073 22.566 29.3112L21.3652 26.2663C21.2813 26.0536 21.1131 25.8853 20.9004 25.8015L17.8555 24.6007C17.1593 24.326 17.1593 23.3407 17.8555 23.066L20.9004 21.8652C21.1131 21.7813 21.2813 21.6131 21.3652 21.4004L22.566 18.3555Z"
		fill="#FAF4E6" />
</svg>