<svg xmlns="http://www.w3.org/2000/svg" width="60" height="60" viewBox="0 0 60 60" fill="none">
	<path fill-rule="evenodd" clip-rule="evenodd"
		d="M36.3444 14.6482C30.9707 16.8598 20.2308 21.4372 4.12469 28.3805C1.50931 29.4096 0.139258 30.4163 0.0145356 31.4007C-0.196247 33.0644 1.9093 33.7195 4.77651 34.6116C5.16653 34.7329 5.57064 34.8586 5.98493 34.9919C8.80583 35.8992 12.6004 36.9607 14.5731 37.0028C16.3625 37.0411 18.3597 36.3111 20.5646 34.813C35.613 24.7619 43.3811 19.6816 43.8688 19.5721C44.2128 19.4948 44.6896 19.3976 45.0127 19.6817C45.3357 19.9658 45.304 20.5039 45.2697 20.6482C45.0612 21.5281 36.7961 29.1311 32.5189 33.0657C31.1855 34.2923 30.2397 35.1623 30.0464 35.361C29.6132 35.8061 29.1718 36.2272 28.7476 36.6319C26.1269 39.1316 24.1616 41.0062 28.8564 44.0674C31.1125 45.5385 32.9178 46.755 34.7189 47.9686C36.6858 49.294 38.6477 50.6159 41.186 52.2623C41.8327 52.6817 42.4504 53.1174 43.0519 53.5418C45.341 55.1565 47.3975 56.6072 49.9382 56.3758C51.4145 56.2414 52.9395 54.8678 53.7139 50.7712C55.5442 41.0897 59.1419 20.1127 59.9733 11.4686C60.0462 10.7113 59.9545 9.74207 59.8809 9.3166C59.8074 8.89112 59.6536 8.28492 59.0946 7.83616C58.4327 7.30469 57.4108 7.19262 56.9537 7.20058C54.8757 7.2368 51.6876 8.3337 36.3444 14.6482Z"
		fill="#FAF4E6" />
</svg>